<svg xmlns="http://www.w3.org/2000/svg" width="184" height="205" fill="none"><path fill="#fff" d="M159.239 192.819c7.764-5.004 15.528-10.007 23.348-14.923.693-.438 1.237.682.573 1.125l-.149.099c-2.83 1.883-5.656 3.764-8.502 5.621-10.183 6.635-20.366 13.271-30.547 19.909a.853.853 0 0 1-1.187-1.015c.749-1.62 1.487-3.246 2.226-4.871a715.509 715.509 0 0 1 2.511-5.488l15.985-34.39c.798-.343 1.598-.683 2.398-1.02l-1.378-1.175-1.02 2.195a400.501 400.501 0 0 0-33.906 16.466 1.064 1.064 0 0 1-1.367-1.509l4.932-8.973 16.092-29.067a258.59 258.59 0 0 1 2.539-.821l-1.153-1.682-1.386 2.503c-1.78.586-3.554 1.191-5.323 1.815a280.023 280.023 0 0 0-26.832 11.098 1.165 1.165 0 0 1-1.498-1.651c4.813-7.97 9.625-15.941 14.435-23.913 1.097-.405 2.188-.824 3.274-1.258l-1.509-1.667-1.765 2.925a130.746 130.746 0 0 1-17.078 5.006 1.188 1.188 0 0 1-1.226-1.787 66.994 66.994 0 0 0 7.992-12.611l1.75.09-1.06-1.552a62.95 62.95 0 0 1-.69 1.462 8996.21 8996.21 0 0 0-7.333-.369l-2.175-.106a7.325 7.325 0 0 1-1.834-.126 4.578 4.578 0 0 1-1.557-1.558l-1.199-1.431a172.35 172.35 0 0 1-4.798-6.04 198.161 198.161 0 0 1-5.823-8.11c.046.574.09 1.147.132 1.72l.1 1.323c.013.164.023.328.034.492.023.352.046.704.083 1.054a2.674 2.674 0 0 1-.185 1.671.78.78 0 0 1-.71.358.847.847 0 0 1-.685-.452 3.253 3.253 0 0 1-.34-1.724l-.097-1.544-.062-.982c-.05-.787-.101-1.575-.145-2.364l-.146-2.583c-.39-.595-.776-1.193-1.159-1.793a1.252 1.252 0 0 1 .86-1.783c.072-.016.144-.03.217-.045.012-.156.026-.313.042-.468l.004.003a.686.686 0 0 0 .01.168c.01.095.015.19.014.283a13.8 13.8 0 0 1 .401-.072l-.425-.379a.632.632 0 0 1 .506-.588.672.672 0 0 1 .77.51l.077.337c2.51-.238 5.05.226 7.327 1.354a1.26 1.26 0 0 1 .377 1.731 1.297 1.297 0 0 1-1.736.38 10.92 10.92 0 0 0-5.243-1.032l-.43-.666c.026.23.047.46.064.691.122-.01.244-.019.367-.025a194.619 194.619 0 0 0 14.295 19.286l-.504-.027.804.382-.3-.355c3.318.175 6.636.332 9.955.488l2.336.11a1.197 1.197 0 0 1 1.06 1.551 68.065 68.065 0 0 1-7.035 12.096c-1.047.256-2.098.498-3.152.727l1.228 1.789a67.715 67.715 0 0 0 1.924-2.516 125.73 125.73 0 0 0 16.614-5.307 1.176 1.176 0 0 1 1.511 1.666l-14.249 23.568c-1.159.526-2.314 1.06-3.464 1.605l1.495 1.652 1.969-3.257a292.943 292.943 0 0 1 31.836-12.24 1.121 1.121 0 0 1 1.154 1.684c-1.655 2.984-3.31 5.967-4.967 8.949a8614.335 8614.335 0 0 1-15.75 28.349 431.801 431.801 0 0 0-3.148 1.678l1.37 1.508 1.778-3.186a414.385 414.385 0 0 1 33.225-15.674c.691-.292 1.774.329 1.377 1.173l-4.831 10.33-15.972 33.985-2.386 1.533 1.189 1.014 1.197-2.547a11206.915 11206.915 0 0 0 13.659-8.79Z"/><path fill="#F094E3" d="m65.677 109.052-25.095 29.972 9.294-37.97-36.15 14.877L39.603 86.63.679 83.003l36.529-13.92-32.78-21.3 38.815 4.65-19.127-34.092 32.207 22.154L55.231 1.42l18.223 34.584L90.646.896l.063 39.092 31.539-23.097-18.111 34.643 38.659-5.794-32.136 22.258 36.924 12.836-38.798 4.774 26.729 28.525-36.573-13.804 10.411 37.68-25.969-29.219-8.291 38.202-9.416-37.94Z"/><path fill="#fff" fill-rule="evenodd" d="M82 65a8 8 0 1 1-16 0 8 8 0 0 1 16 0ZM58 86.333C58 89 60.667 89 60.667 89h26.666S90 89 90 86.333c0-2.666-2.667-10.666-16-10.666s-16 8-16 10.666Z" clip-rule="evenodd"/></svg>