<svg xmlns="http://www.w3.org/2000/svg" width="318" height="318" fill="none"><circle cx="159" cy="159" r="159" fill="#F38472"/><path fill="#FFD5CE" fill-rule="evenodd" d="M91.238 258.861a111.495 111.495 0 0 1-12.373-14.258v-.001c-.391-.522-1.356-.057-1.036.558a63.072 63.072 0 0 0 13.532 17.109 86.836 86.836 0 0 0 33.388 18.987 85.089 85.089 0 0 0 19.095 3.536c3.477.206 6.959.2 10.427-.018l.063-.029a579.087 579.087 0 0 1 4.622-2.092c.718.528 1.738-.012 1.731-.769.621-.275 1.244-.548 1.867-.819l.635 2.675a85.426 85.426 0 0 1-8.918 1.034l-3.803 1.743a.717.717 0 0 1 .638 1.139c-.685.818-1.431 1.541-2.186 2.272-.255.246-.51.494-.764.746l-1.979-2.074a1.458 1.458 0 0 0 1.359 2.524 29.265 29.265 0 0 0 4.111-1.84l3.916-1.824c2.67-1.24 5.329-2.507 7.975-3.8.635-.254.99-.932.839-1.605a1.385 1.385 0 0 0-1.473-1.07c-.784.153-1.57.294-2.358.421a1.569 1.569 0 0 0-.088-.13 28.83 28.83 0 0 0-4.145-4.45 23.198 23.198 0 0 0-2.545-1.876 4.636 4.636 0 0 0-2.42-1.04.893.893 0 0 0-.746 1.2 5.568 5.568 0 0 0 1.872 1.746c.689.518 1.354 1.069 2.021 1.62l.166.137a41.933 41.933 0 0 1 3.422 3.147 71.816 71.816 0 0 1-16.313.19 85.536 85.536 0 0 1-35.542-11.7 84.972 84.972 0 0 1-14.99-11.389Zm57.545 28.374c.48-.217.965-.421 1.456-.612l.229-.106a.708.708 0 0 0-.163.035c-.523.208-1.026.44-1.522.683Zm0 0c-.895.406-1.769.857-2.618 1.352l.012.013c.099-.078.209-.144.331-.195.31-.157.616-.317.921-.476.451-.236.899-.47 1.354-.694Z" clip-rule="evenodd"/></svg>