<svg width="32" height="32" fill="none" xmlns="http://www.w3.org/2000/svg"><path fill-rule="evenodd" clip-rule="evenodd" d="M17.864 1.455c-.488-1.94-3.242-1.94-3.728 0l-.142.572a1.92 1.92 0 0 1-3.244.868l-.41-.422c-1.39-1.438-3.775-.058-3.225 1.862l.162.568a1.92 1.92 0 0 1-2.374 2.372l-.568-.16c-1.922-.55-3.3 1.835-1.862 3.225l.422.41a1.92 1.92 0 0 1-.868 3.244l-.572.142c-1.94.488-1.94 3.242 0 3.728l.572.142a1.92 1.92 0 0 1 .868 3.244l-.422.41c-1.438 1.39-.058 3.775 1.862 3.225l.568-.162a1.92 1.92 0 0 1 2.372 2.374l-.16.568c-.55 1.922 1.835 3.3 3.225 1.862l.41-.422a1.92 1.92 0 0 1 3.244.868l.142.572c.488 1.94 3.242 1.94 3.728 0l.142-.572a1.92 1.92 0 0 1 3.244-.868l.41.422c1.39 1.438 3.775.058 3.225-1.862l-.162-.566a1.92 1.92 0 0 1 2.374-2.373l.568.16c1.922.55 3.3-1.836 1.862-3.226l-.422-.41a1.92 1.92 0 0 1 .868-3.244l.572-.142c1.94-.488 1.94-3.242 0-3.728l-.572-.142a1.92 1.92 0 0 1-.868-3.244l.422-.41c1.438-1.39.058-3.775-1.862-3.225l-.566.162a1.92 1.92 0 0 1-2.373-2.374l.16-.568c.55-1.922-1.836-3.3-3.226-1.862l-.41.422a1.92 1.92 0 0 1-3.244-.868l-.142-.572ZM16.5 17h9.445a9.995 9.995 0 0 1-15.113 7.558L16.5 17Zm9.445-2a9.995 9.995 0 0 0-15.113-7.557l5.668 7.56h9.445V15Zm-19.94 1a9.967 9.967 0 0 1 3.23-7.356L14.75 16l-5.516 7.355A9.963 9.963 0 0 1 6.004 16Z" fill="#fff"/></svg>