<svg aria-hidden="true" style="width:0;height:0;position:absolute;overflow:hidden" xmlns="http://www.w3.org/2000/svg"><defs><symbol id="icon-path" viewBox="0 0 41 32"><path d="M0 13.531c4.731.974 10.821 2.857 15.429 5.817C20.842 12.194 30.563 5.499 41.143-.001c-10.048 9.769-18.361 20.855-24 32C12.599 25.629 7.634 19.7 0 13.53z"/></symbol><symbol id="icon-combined-shape" viewBox="0 0 32 32"><path d="M1 0a1 1 0 0 0-1 1v25.088a5.962 5.962 0 0 0 1.758 4.154A5.961 5.961 0 0 0 5.993 32H31a1 1 0 0 0 1-1V21a1 1 0 0 0-1-1H20.522l8.256-8.22a.998.998 0 0 0 0-1.416l-7.07-7.072a.997.997 0 0 0-1.414 0L12 11.554V1a1 1 0 0 0-1-1H1zm25.656 11.068L12 25.668V14.376l8.998-8.964 5.658 5.656zM9 26a3 3 0 1 0-6 0 3 3 0 1 0 6 0zm9.516-4H30v8H10.486l8.03-8z"/></symbol></defs></svg><svg aria-hidden="true" style="width:0;height:0;position:absolute;overflow:hidden" xmlns="http://www.w3.org/2000/svg"><defs><symbol id="icon-Path-1" viewBox="0 0 41 32"><path d="M0 13.531c4.731.974 10.821 2.857 15.429 5.817C20.842 12.194 30.563 5.499 41.143-.001c-10.048 9.769-18.361 20.855-24 32C12.599 25.629 7.634 19.7 0 13.53z"/></symbol><symbol id="icon-combined-shape" viewBox="0 0 32 32"><path d="M1 0a1 1 0 0 0-1 1v25.088a5.962 5.962 0 0 0 1.758 4.154A5.961 5.961 0 0 0 5.993 32H31a1 1 0 0 0 1-1V21a1 1 0 0 0-1-1H20.522l8.256-8.22a.998.998 0 0 0 0-1.416l-7.07-7.072a.997.997 0 0 0-1.414 0L12 11.554V1a1 1 0 0 0-1-1H1zm25.656 11.068L12 25.668V14.376l8.998-8.964 5.658 5.656zM9 26a3 3 0 1 0-6 0 3 3 0 1 0 6 0zm9.516-4H30v8H10.486l8.03-8z"/></symbol></defs></svg>