<svg aria-hidden="true" style="width:0;height:0;position:absolute;overflow:hidden" xmlns="http://www.w3.org/2000/svg"><defs><symbol id="icon-mobil-menu" viewBox="0 0 32 32"><path d="M26.733 14H5.267c-.7 0-1.267.425-1.267.95v.1c0 .525.567.95 1.267.95h21.466c.7 0 1.267-.425 1.267-.95v-.1c0-.525-.567-.95-1.267-.95zm0 6H5.267c-.7 0-1.267.425-1.267.95v.1c0 .525.567.95 1.267.95h21.466c.7 0 1.267-.425 1.267-.95v-.1c0-.525-.567-.95-1.267-.95zm0-12H5.267C4.567 8 4 8.425 4 8.95v.1c0 .525.567.95 1.267.95h21.466c.7 0 1.267-.425 1.267-.95v-.1c0-.525-.567-.95-1.267-.95z"/></symbol><symbol id="icon-icon-menu-close" viewBox="0 0 32 32"><path d="M23.884 6.706 16 14.59 8.116 6.706a.996.996 0 0 0-1.672.736c0 .26.099.497.262.674l-.001-.001 7.88 7.884-7.882 7.882a.998.998 0 0 0 1.41 1.412l7.886-7.882 7.884 7.884a.996.996 0 0 0 1.672-.736.992.992 0 0 0-.262-.674l.001.001-7.884-7.884 7.884-7.886a.998.998 0 0 0-1.41-1.412v.002z"/></symbol><symbol id="icon-arrow-btn" viewBox="0 0 32 32"><path d="M10.587 3.272c-.361.362-.585.861-.585 1.413s.223 1.051.585 1.413l9.899 9.901-9.899 9.899a2 2 0 0 0 2.828 2.825l-.001.001 11.315-11.312c.361-.362.585-.861.585-1.413s-.224-1.052-.585-1.413L13.414 3.271c-.362-.361-.861-.585-1.413-.585s-1.052.224-1.413.585z"/></symbol><symbol id="arrow-top" viewBox="0 0 320 512"><path d="M310.6 182.6c-12.51 12.51-32.76 12.49-45.25 0L192 109.3V480c0 17.69-14.31 32-32 32s-32-14.31-32-32V109.3l-73.37 73.3c-12.5 12.5-32.75 12.5-45.25 0s-12.5-32.75 0-45.25l128-128c12.5-12.5 32.75-12.5 45.25 0l128 128c12.47 12.55 12.47 32.75-.03 45.25z"/></symbol></defs></svg>