<svg aria-hidden="true" style="width:0;height:0;position:absolute;overflow:hidden" xmlns="http://www.w3.org/2000/svg"><defs><symbol id="icon-pentagon" viewBox="0 0 33 32"><path d="m16.291 10.422 6.643 4.827-2.538 7.81h-8.212l-2.538-7.81 6.643-4.827zm.415-5.757L4.418 13.656l4.704 14.58h15.167l4.704-14.58-12.288-8.991zm0-4.665 16.706 12.223L27.031 32H6.382L.001 12.223 16.707 0z"/></symbol><symbol id="icon-mobil-menu" viewBox="0 0 32 32"><path d="M26.733 14H5.267c-.7 0-1.267.425-1.267.95v.1c0 .525.567.95 1.267.95h21.466c.7 0 1.267-.425 1.267-.95v-.1c0-.525-.567-.95-1.267-.95zm0 6H5.267c-.7 0-1.267.425-1.267.95v.1c0 .525.567.95 1.267.95h21.466c.7 0 1.267-.425 1.267-.95v-.1c0-.525-.567-.95-1.267-.95zm0-12H5.267C4.567 8 4 8.425 4 8.95v.1c0 .525.567.95 1.267.95h21.466c.7 0 1.267-.425 1.267-.95v-.1c0-.525-.567-.95-1.267-.95z"/></symbol><symbol id="icon-icon-menu-close" viewBox="0 0 32 32"><path d="M23.884 6.706 16 14.59 8.116 6.706a.996.996 0 0 0-1.672.736c0 .26.099.497.262.674l-.001-.001 7.88 7.884-7.882 7.882a.998.998 0 0 0 1.41 1.412l7.886-7.882 7.884 7.884a.996.996 0 0 0 1.672-.736.992.992 0 0 0-.262-.674l.001.001-7.884-7.884 7.884-7.886a.998.998 0 0 0-1.41-1.412v.002z"/></symbol><symbol id="icon-arrow-btn" viewBox="0 0 32 32"><path d="M10.587 3.272c-.361.362-.585.861-.585 1.413s.223 1.051.585 1.413l9.899 9.901-9.899 9.899a2 2 0 0 0 2.828 2.825l-.001.001 11.315-11.312c.361-.362.585-.861.585-1.413s-.224-1.052-.585-1.413L13.414 3.271c-.362-.361-.861-.585-1.413-.585s-1.052.224-1.413.585z"/></symbol><symbol id="arrow-top" viewBox="0 0 320 512"><path d="M310.6 182.6c-12.51 12.51-32.76 12.49-45.25 0L192 109.3V480c0 17.69-14.31 32-32 32s-32-14.31-32-32V109.3l-73.37 73.3c-12.5 12.5-32.75 12.5-45.25 0s-12.5-32.75 0-45.25l128-128c12.5-12.5 32.75-12.5 45.25 0l128 128c12.47 12.55 12.47 32.75-.03 45.25z"/></symbol><symbol id="icon-up" viewBox="0 0 32 32"><path d="M32 16c0 8.837-7.163 16-16 16S0 24.837 0 16 7.163 0 16 0s16 7.163 16 16z"/><path fill="#fff" d="m15.247 10.86-4.796 5.481c-.566.647-.106 1.659.753 1.659h9.592a1.001 1.001 0 0 0 .753-1.659l-4.796-5.48a1 1 0 0 0-1.506 0v-.001z"/></symbol><symbol id="icon-down" viewBox="0 0 32 32"><path d="M32 16c0 8.837-7.163 16-16 16S0 24.837 0 16 7.163 0 16 0s16 7.163 16 16z"/><path fill="#fff" d="m15.045 21.14-4.796-5.482c-.566-.645-.106-1.658.753-1.658h9.592a.999.999 0 0 1 .753 1.659l-4.796 5.48a1.002 1.002 0 0 1-1.506 0v.001z"/></symbol><symbol id="icon-video-play" viewBox="0 0 32 32"><path fill="#ef6d58" d="M32 16c0 8.837-7.163 16-16 16S0 24.837 0 16 7.163 0 16 0s16 7.163 16 16z"/><path fill="#fff" d="M11.37 20.57v-9.14c0-.87.95-1.41 1.7-.95l7.5 4.57c.71.43.71 1.47 0 1.91l-7.5 4.57c-.74.44-1.7-.09-1.7-.96z"/></symbol><symbol id="icon-star" viewBox="0 0 203 32"><path d="m16 24-9.404 4.944 1.796-10.472-7.609-7.416 10.515-1.528L16.001 0l4.703 9.528 10.515 1.528-7.609 7.416 1.796 10.472L16.002 24zm42.667 0-9.404 4.944 1.796-10.472-7.609-7.416 10.515-1.528L58.668 0l4.703 9.528 10.515 1.528-7.609 7.416 1.796 10.472L58.669 24zm42.666 0-9.404 4.944 1.796-10.472-7.609-7.416 10.515-1.528L101.334 0l4.703 9.528 10.515 1.528-7.609 7.416 1.796 10.472L101.335 24zM144 24l-9.404 4.944 1.796-10.472-7.609-7.416 10.515-1.528L144.001 0l4.703 9.528 10.515 1.528-7.609 7.416 1.796 10.472L144.002 24zm42.667 0-9.404 4.944 1.796-10.472-7.609-7.416 10.515-1.528L186.668 0l4.703 9.528 10.515 1.528-7.609 7.416 1.796 10.472L186.669 24z"/></symbol><symbol id="icon-minus" viewBox="0 0 32 32"><path fill="#f6daca" style="fill:var(--color1,#f6daca)" d="M32 16c0 8.837-7.163 16-16 16S0 24.837 0 16 7.163 0 16 0s16 7.163 16 16z"/><path fill="#fff" style="fill:var(--color2,#fff)" d="M10 14h12a2 2 0 1 1 0 4H10a2 2 0 1 1 0-4z"/></symbol><symbol id="icon-plus" viewBox="0 0 32 32"><path fill="#ef6d58" style="fill:var(--color3,#ef6d58)" d="M32 16c0 8.837-7.163 16-16 16S0 24.837 0 16 7.163 0 16 0s16 7.163 16 16z"/><path fill="#fff" style="fill:var(--color2,#fff)" d="M16 8a2 2 0 0 0-2 2v4h-4a2 2 0 1 0 0 4h4v4a2 2 0 1 0 4 0v-4h4a2 2 0 1 0 0-4h-4v-4a2 2 0 0 0-2-2z"/></symbol><symbol id="icon-close" viewBox="0 0 32 32"><path d="M31.439 3.166 28.273 0 15.719 12.552 3.167 0 .001 3.166l12.552 12.552L.001 28.272l3.166 3.166 12.552-12.554 12.554 12.554 3.166-3.166-12.554-12.554L31.439 3.166z"/></symbol></defs></svg>