<svg aria-hidden="true" style="width:0;height:0;position:absolute;overflow:hidden" xmlns="http://www.w3.org/2000/svg"><defs><symbol id="icon-compass" viewBox="0 0 31 32"><path d="M16.684 31.941c7.913-.683 13.982-7.161 13.983-14.925-.001-6.767-4.64-12.694-11.321-14.466.177-.603.054-1.253-.333-1.754S18.021 0 17.379.001H13.29c-.642-.001-1.247.294-1.634.795s-.51 1.151-.333 1.754C3.656 4.581-1.155 12 .24 19.644s8.531 12.981 16.444 12.298zM24 9.333l-6.5 10-10.833 6 6.5-10 10.833-6z"/></symbol><symbol id="icon-email" viewBox="0 0 43 32"><path d="M5.333 0A5.337 5.337 0 0 0 .14 4.111l-.007.036 21.2 12.955 21.2-12.958C41.972 1.753 39.858 0 37.334 0H5.333zM0 26.135V7.193l15.474 9.454L0 26.135zm18.03-7.922L.51 28.951C1.386 30.768 3.214 32 5.329 32H37.334a5.333 5.333 0 0 0 4.806-3.019l.014-.032-17.52-10.738-3.301 2.016-3.303-2.02v.004zm24.637 7.924-15.474-9.49 15.474-9.456v18.944z"/></symbol><symbol id="icon-map" viewBox="0 0 24 32"><path d="M24 12c0 8.628-12 20-12 20S0 20.628 0 12C0 5.373 5.373 0 12 0s12 5.373 12 12zM6 12a6 6 0 1 0 12 0 6 6 0 1 0-12 0z"/></symbol><symbol id="icon-tel" viewBox="0 0 32 32"><path d="M3.771 1.02A3.48 3.48 0 0 1 6.237 0c1.116 0 2.11.524 2.749 1.339l.006.008 3.589 4.612c.659.845.891 1.948.631 2.988l-1.093 4.38c-.116.461.019.949.355 1.287l4.915 4.913c.337.337.827.472 1.288.356l4.377-1.093c.254-.066.546-.104.847-.104.81 0 1.556.276 2.148.74l-.008-.006 4.612 3.589a3.486 3.486 0 0 1 .325 5.221l-2.067 2.068c-1.48 1.48-3.693 2.131-5.755 1.404-5.488-1.964-10.173-4.983-14.019-8.839l-.001-.001A37.292 37.292 0 0 1 .378 9.103l-.082-.26c-.723-2.06-.072-4.275 1.408-5.755l2.067-2.067z"/></symbol><symbol id="icon-triangle" viewBox="0 0 53 32"><path d="M26.667 32 53.334 0H.001l26.667 32z"/></symbol><symbol id="icon-combined-shape" viewBox="0 0 32 32"><path d="M1 0a1 1 0 0 0-1 1v25.088a5.962 5.962 0 0 0 1.758 4.154A5.961 5.961 0 0 0 5.993 32H31a1 1 0 0 0 1-1V21a1 1 0 0 0-1-1H20.522l8.256-8.22a.998.998 0 0 0 0-1.416l-7.07-7.072a.997.997 0 0 0-1.414 0L12 11.554V1a1 1 0 0 0-1-1H1zm25.656 11.068L12 25.668V14.376l8.998-8.964 5.658 5.656zM9 26a3 3 0 1 0-6 0 3 3 0 1 0 6 0zm9.516-4H30v8H10.486l8.03-8z"/></symbol></defs></svg>