<svg aria-hidden="true" style="position: absolute; width: 0; height: 0; overflow: hidden;" version="1.1" xmlns="http://www.w3.org/2000/svg" xmlns:xlink="http://www.w3.org/1999/xlink">
<defs>
<symbol id="icon-Combined-Shape" viewBox="0 0 37 32">
<path fill="#fff" style="fill: var(--color1, #fff)" d="M0 2.286c0 1.262 1.023 2.286 2.286 2.286h32c1.262 0 2.286-1.023 2.286-2.286s-1.023-2.286-2.286-2.286h-32c-1.262 0-2.286 1.023-2.286 2.286zM0 16c0 1.262 1.023 2.286 2.286 2.286h32c1.262 0 2.286-1.023 2.286-2.286s-1.023-2.286-2.286-2.286h-32c-1.262 0-2.286 1.023-2.286 2.286zM2.286 27.429h32c1.262 0 2.286 1.023 2.286 2.286s-1.023 2.286-2.286 2.286h-32c-1.262 0-2.286-1.023-2.286-2.286s1.023-2.286 2.286-2.286z"></path>
</symbol>
</defs>
</svg>
