<svg aria-hidden="true" style="position: absolute; width: 0; height: 0; overflow: hidden;" version="1.1" xmlns="http://www.w3.org/2000/svg" xmlns:xlink="http://www.w3.org/1999/xlink">
<defs>
<symbol id="icon-mobil-menu" viewBox="0 0 32 32">
<path d="M26.733 14h-21.466c-0.7 0-1.267 0.425-1.267 0.95v0.1c0 0.525 0.567 0.95 1.267 0.95h21.466c0.7 0 1.267-0.425 1.267-0.95v-0.1c0-0.525-0.567-0.95-1.267-0.95zM26.733 20h-21.466c-0.7 0-1.267 0.425-1.267 0.95v0.1c0 0.525 0.567 0.95 1.267 0.95h21.466c0.7 0 1.267-0.425 1.267-0.95v-0.1c0-0.525-0.567-0.95-1.267-0.95zM26.733 8h-21.466c-0.7 0-1.267 0.425-1.267 0.95v0.1c0 0.525 0.567 0.95 1.267 0.95h21.466c0.7 0 1.267-0.425 1.267-0.95v-0.1c0-0.525-0.567-0.95-1.267-0.95z"></path>
</symbol>
<symbol id="icon-icon-menu-close" viewBox="0 0 32 32">
<path d="M23.884 6.706l-7.884 7.884-7.884-7.884c-0.177-0.162-0.414-0.262-0.674-0.262-0.551 0-0.998 0.447-0.998 0.998 0 0.26 0.099 0.497 0.262 0.674l-0.001-0.001 7.88 7.884-7.882 7.882c-0.181 0.181-0.293 0.43-0.293 0.706 0 0.551 0.447 0.998 0.998 0.998 0.275 0 0.524-0.111 0.705-0.292v0l7.886-7.882 7.884 7.884c0.177 0.162 0.414 0.262 0.674 0.262 0.551 0 0.998-0.447 0.998-0.998 0-0.26-0.099-0.497-0.262-0.674l0.001 0.001-7.884-7.884 7.884-7.886c0.181-0.181 0.293-0.43 0.293-0.706 0-0.551-0.447-0.998-0.998-0.998-0.275 0-0.524 0.111-0.705 0.292v0 0.002z"></path>
</symbol>
<symbol id="icon-arrow-btn" viewBox="0 0 32 32">
<path d="M10.587 3.272c-0.361 0.362-0.585 0.861-0.585 1.413s0.223 1.051 0.585 1.413l9.899 9.901-9.899 9.899c-0.333 0.356-0.537 0.836-0.537 1.363 0 1.105 0.895 2 2 2 0.527 0 1.007-0.204 1.365-0.538l-0.001 0.001 11.315-11.312c0.361-0.362 0.585-0.861 0.585-1.413s-0.224-1.052-0.585-1.413l-11.315-11.315c-0.362-0.361-0.861-0.585-1.413-0.585s-1.052 0.224-1.413 0.585l0-0z"></path>
</symbol>
<symbol id="arrow-top" viewBox="0 0 320 512">
<path d="M310.6 182.6c-12.51 12.51-32.76 12.49-45.25 0L192 109.3V480c0 17.69-14.31 32-32 32s-32-14.31-32-32V109.3L54.63 182.6c-12.5 12.5-32.75 12.5-45.25 0s-12.5-32.75 0-45.25l128-128c12.5-12.5 32.75-12.5 45.25 0l128 128C323.1 149.9 323.1 170.1 310.6 182.6z"/>
</symbol>
<symbol id="icon-star" viewBox="0 0 203 32">
<path d="M16 24l-9.404 4.944 1.796-10.472-7.609-7.416 10.515-1.528 4.703-9.528 4.703 9.528 10.515 1.528-7.609 7.416 1.796 10.472-9.404-4.944zM58.667 24l-9.404 4.944 1.796-10.472-7.609-7.416 10.515-1.528 4.703-9.528 4.703 9.528 10.515 1.528-7.609 7.416 1.796 10.472-9.404-4.944zM101.333 24l-9.404 4.944 1.796-10.472-7.609-7.416 10.515-1.528 4.703-9.528 4.703 9.528 10.515 1.528-7.609 7.416 1.796 10.472-9.404-4.944zM144 24l-9.404 4.944 1.796-10.472-7.609-7.416 10.515-1.528 4.703-9.528 4.703 9.528 10.515 1.528-7.609 7.416 1.796 10.472-9.404-4.944zM186.667 24l-9.404 4.944 1.796-10.472-7.609-7.416 10.515-1.528 4.703-9.528 4.703 9.528 10.515 1.528-7.609 7.416 1.796 10.472-9.404-4.944z"></path>
</symbol>
<symbol id="icon-plus" viewBox="0 0 32 32">
<path fill="#ef6d58" style="fill: var(--color1, #ef6d58)" d="M32 16c0 8.837-7.163 16-16 16s-16-7.163-16-16c0-8.837 7.163-16 16-16s16 7.163 16 16z"></path>
<path fill="#fff" style="fill: var(--color2, #fff)" d="M16 8c-1.105 0-2 0.895-2 2v0 4h-4c-1.105 0-2 0.895-2 2s0.895 2 2 2v0h4v4c0 1.105 0.895 2 2 2s2-0.895 2-2v0-4h4c1.105 0 2-0.895 2-2s-0.895-2-2-2v0h-4v-4c0-1.105-0.895-2-2-2v0z"></path>
</symbol>
<symbol id="icon-minus" viewBox="0 0 32 32">
<path fill="#f6daca" style="fill: var(--color1, #f6daca)" d="M32 16c0 8.837-7.163 16-16 16s-16-7.163-16-16c0-8.837 7.163-16 16-16s16 7.163 16 16z"></path>
<path fill="#fff" style="fill: var(--color2, #fff)" d="M10 14h12c1.105 0 2 0.895 2 2s-0.895 2-2 2h-12c-1.105 0-2-0.895-2-2s0.895-2 2-2z"></path>
</symbol>
</defs>
</svg>
