<svg aria-hidden="true" style="position: absolute; width: 0; height: 0; overflow: hidden;" version="1.1" xmlns="http://www.w3.org/2000/svg" xmlns:xlink="http://www.w3.org/1999/xlink">
<defs>
<symbol id="icon-mobil-menu" viewBox="0 0 32 32">
<path d="M26.733 14h-21.466c-0.7 0-1.267 0.425-1.267 0.95v0.1c0 0.525 0.567 0.95 1.267 0.95h21.466c0.7 0 1.267-0.425 1.267-0.95v-0.1c0-0.525-0.567-0.95-1.267-0.95zM26.733 20h-21.466c-0.7 0-1.267 0.425-1.267 0.95v0.1c0 0.525 0.567 0.95 1.267 0.95h21.466c0.7 0 1.267-0.425 1.267-0.95v-0.1c0-0.525-0.567-0.95-1.267-0.95zM26.733 8h-21.466c-0.7 0-1.267 0.425-1.267 0.95v0.1c0 0.525 0.567 0.95 1.267 0.95h21.466c0.7 0 1.267-0.425 1.267-0.95v-0.1c0-0.525-0.567-0.95-1.267-0.95z"></path>
</symbol>
<symbol id="icon-icon-menu-close" viewBox="0 0 32 32">
<path d="M23.884 6.706l-7.884 7.884-7.884-7.884c-0.177-0.162-0.414-0.262-0.674-0.262-0.551 0-0.998 0.447-0.998 0.998 0 0.26 0.099 0.497 0.262 0.674l-0.001-0.001 7.88 7.884-7.882 7.882c-0.181 0.181-0.293 0.43-0.293 0.706 0 0.551 0.447 0.998 0.998 0.998 0.275 0 0.524-0.111 0.705-0.292v0l7.886-7.882 7.884 7.884c0.177 0.162 0.414 0.262 0.674 0.262 0.551 0 0.998-0.447 0.998-0.998 0-0.26-0.099-0.497-0.262-0.674l0.001 0.001-7.884-7.884 7.884-7.886c0.181-0.181 0.293-0.43 0.293-0.706 0-0.551-0.447-0.998-0.998-0.998-0.275 0-0.524 0.111-0.705 0.292v0 0.002z"></path>
</symbol>
<symbol id="icon-arrow-btn" viewBox="0 0 32 32">
<path d="M10.587 3.272c-0.361 0.362-0.585 0.861-0.585 1.413s0.223 1.051 0.585 1.413l9.899 9.901-9.899 9.899c-0.333 0.356-0.537 0.836-0.537 1.363 0 1.105 0.895 2 2 2 0.527 0 1.007-0.204 1.365-0.538l-0.001 0.001 11.315-11.312c0.361-0.362 0.585-0.861 0.585-1.413s-0.224-1.052-0.585-1.413l-11.315-11.315c-0.362-0.361-0.861-0.585-1.413-0.585s-1.052 0.224-1.413 0.585l0-0z"></path>
</symbol>
<symbol id="arrow-top" viewBox="0 0 320 512">
<path d="M310.6 182.6c-12.51 12.51-32.76 12.49-45.25 0L192 109.3V480c0 17.69-14.31 32-32 32s-32-14.31-32-32V109.3L54.63 182.6c-12.5 12.5-32.75 12.5-45.25 0s-12.5-32.75 0-45.25l128-128c12.5-12.5 32.75-12.5 45.25 0l128 128C323.1 149.9 323.1 170.1 310.6 182.6z"/>
</symbol>
<symbol id="icon-combined-shape" viewBox="0 0 37 32">
<path fill="#fff" style="fill: var(--color1, #fff)" d="M0 2.286c0 1.262 1.023 2.286 2.286 2.286h32c1.262 0 2.286-1.023 2.286-2.286s-1.023-2.286-2.286-2.286h-32c-1.262 0-2.286 1.023-2.286 2.286zM0 16c0 1.262 1.023 2.286 2.286 2.286h32c1.262 0 2.286-1.023 2.286-2.286s-1.023-2.286-2.286-2.286h-32c-1.262 0-2.286 1.023-2.286 2.286zM2.286 27.429h32c1.262 0 2.286 1.023 2.286 2.286s-1.023 2.286-2.286 2.286h-32c-1.262 0-2.286-1.023-2.286-2.286s1.023-2.286 2.286-2.286z"></path>
</symbol>
<symbol id="icon-up" viewBox="0 0 32 32">
<path d="M32 16c0 8.837-7.163 16-16 16s-16-7.163-16-16c0-8.837 7.163-16 16-16s16 7.163 16 16z"></path>
<path fill="#fff" d="M15.247 10.86l-4.796 5.481c-0.566 0.647-0.106 1.659 0.753 1.659h9.592c0.393 0 0.749-0.229 0.912-0.587s0.1-0.777-0.159-1.072l-4.796-5.48c-0.19-0.217-0.464-0.342-0.753-0.342s-0.563 0.125-0.753 0.342v-0.001z"></path>
</symbol>
<symbol id="icon-down" viewBox="0 0 32 32">
<path d="M32 16c0 8.837-7.163 16-16 16s-16-7.163-16-16c0-8.837 7.163-16 16-16s16 7.163 16 16z"></path>
<path fill="#fff" d="M15.045 21.14l-4.796-5.482c-0.566-0.645-0.106-1.658 0.753-1.658h9.592c0.393-0 0.749 0.229 0.911 0.587s0.1 0.777-0.158 1.072l-4.796 5.48c-0.19 0.217-0.465 0.342-0.753 0.342s-0.563-0.125-0.753-0.342v0.001z"></path>
</symbol>
<symbol id="icon-video-play" viewBox="0 0 32 32">
<path fill="#ef6d58" d="M32 16c0 8.837-7.163 16-16 16s-16-7.163-16-16c0-8.837 7.163-16 16-16s16 7.163 16 16z"></path>
<path fill="#fff" d="M11.37 20.57v-9.14c0-0.87 0.95-1.41 1.7-0.95l7.5 4.57c0.71 0.43 0.71 1.47 0 1.91l-7.5 4.57c-0.74 0.44-1.7-0.090-1.7-0.96z"></path>
</symbol>
<symbol id="icon-twitter" viewBox="0 0 37 32">
<path d="M36.571 3.52c-1.255 0.571-2.71 0.987-4.236 1.174l-0.073 0.007c1.551-0.94 2.718-2.382 3.285-4.098l0.015-0.053c-1.372 0.828-2.97 1.46-4.672 1.803l-0.096 0.016c-1.373-1.454-3.314-2.359-5.466-2.359-4.148 0-7.511 3.363-7.511 7.511 0 0.599 0.070 1.182 0.203 1.74l-0.010-0.051c-6.249-0.323-11.746-3.291-15.433-7.798l-0.030-0.038c-0.638 1.081-1.015 2.382-1.015 3.772 0 2.592 1.312 4.877 3.309 6.228l0.027 0.017c-1.253-0.041-2.417-0.383-3.434-0.957l0.037 0.019c-0.078 3.472 2.414 6.722 6.025 7.449-0.59 0.166-1.267 0.262-1.966 0.262-0.503 0-0.995-0.049-1.471-0.144l0.048 0.008c0.989 3.004 3.741 5.146 7.003 5.209l0.007 0c-2.54 2.008-5.789 3.22-9.321 3.22-0.633 0-1.257-0.039-1.87-0.115l0.073 0.007c3.244 2.114 7.213 3.371 11.477 3.371 0.007 0 0.014 0 0.021 0h-0.001c13.936 0 21.806-11.767 21.328-22.32 1.477-1.072 2.72-2.359 3.712-3.83l0.034-0.054z"></path>
</symbol>
<symbol id="icon-instagram" viewBox="0 0 32 32">
<path d="M16 0c-4.346 0-4.888 0.020-6.598 0.1-5.812 0.264-9.040 3.488-9.306 9.3-0.078 1.712-0.096 2.256-0.096 6.6 0 4.346 0.020 4.89 0.096 6.598 0.266 5.81 3.494 9.040 9.306 9.306 1.71 0.078 2.252 0.096 6.598 0.096s4.89-0.020 6.6-0.096c5.802-0.266 9.042-3.49 9.304-9.306 0.078-1.708 0.096-2.252 0.096-6.598 0-4.344-0.020-4.888-0.096-6.598-0.26-5.802-3.49-9.040-9.304-9.302-1.71-0.080-2.254-0.1-6.6-0.1zM16 2.886c4.272 0 4.78 0.016 6.466 0.092 4.34 0.198 6.36 2.254 6.56 6.558 0.076 1.688 0.092 2.192 0.092 6.464s-0.016 4.78-0.092 6.464c-0.2 4.3-2.218 6.362-6.56 6.56-1.688 0.074-2.192 0.094-6.466 0.094-4.272 0-4.78-0.016-6.464-0.094-4.346-0.2-6.36-2.264-6.56-6.56-0.074-1.686-0.094-2.192-0.094-6.464s0.020-4.78 0.094-6.464c0.198-4.306 2.22-6.362 6.56-6.56 1.686-0.078 2.192-0.090 6.464-0.090zM7.784 16c0-4.538 3.678-8.216 8.216-8.216s8.216 3.678 8.216 8.216v0c0 4.538-3.678 8.216-8.216 8.216s-8.216-3.678-8.216-8.216v0zM16 21.334c-2.946 0-5.334-2.388-5.334-5.334s2.388-5.334 5.334-5.334v0c0.044-0.001 0.095-0.002 0.146-0.002 2.947 0 5.336 2.389 5.336 5.336s-2.389 5.336-5.336 5.336c-0.051 0-0.103-0.001-0.154-0.002l0.008 0zM22.62 7.462c0-1.060 0.86-1.92 1.92-1.92s1.92 0.86 1.92 1.92v0c0 1.060-0.86 1.92-1.92 1.92s-1.92-0.86-1.92-1.92v0z"></path>
</symbol>
<symbol id="icon-facebook" viewBox="0 0 20 32">
<path d="M5.334 10.666h-5.334v5.334h5.334v16h8v-16h4.852l0.48-5.334h-5.332v-2.22c0-1.276 0.256-1.78 1.488-1.78h3.844v-6.666h-6.41c-4.794 0-6.922 2.112-6.922 6.154v4.512z"></path>
</symbol>
</defs>
</svg>
