<svg aria-hidden="true" style="position: absolute; width: 0; height: 0; overflow: hidden;" version="1.1" xmlns="http://www.w3.org/2000/svg" xmlns:xlink="http://www.w3.org/1999/xlink">
<defs>
<symbol id="icon-compass" viewBox="0 0 31 32">
<path d="M16.684 31.941c7.913-0.683 13.982-7.161 13.983-14.925-0.001-6.767-4.64-12.694-11.321-14.466 0.177-0.603 0.054-1.253-0.333-1.754s-0.992-0.796-1.634-0.795h-4.089c-0.642-0.001-1.247 0.294-1.634 0.795s-0.51 1.151-0.333 1.754c-7.667 2.031-12.478 9.45-11.083 17.094s8.531 12.981 16.444 12.298zM24 9.333l-6.5 10-10.833 6 6.5-10 10.833-6z"></path>
</symbol>
<symbol id="icon-email" viewBox="0 0 43 32">
<path d="M5.333 0c-0 0-0 0-0 0-2.525 0-4.64 1.755-5.193 4.111l-0.007 0.036 21.2 12.955 21.2-12.958c-0.561-2.391-2.675-4.144-5.199-4.144-0 0-0.001 0-0.001 0h-32zM0 26.135v-18.942l15.474 9.454-15.474 9.488zM18.030 18.213l-17.52 10.738c0.876 1.817 2.704 3.049 4.819 3.049 0.001 0 0.003 0 0.004 0h32c0 0 0.001 0 0.001 0 2.116 0 3.944-1.232 4.806-3.019l0.014-0.032-17.52-10.738-3.301 2.016-3.303-2.020v0.004zM42.667 26.137l-15.474-9.49 15.474-9.456v18.944z"></path>
</symbol>
<symbol id="icon-map" viewBox="0 0 24 32">
<path d="M24 12c0 8.628-12 20-12 20s-12-11.372-12-20c0-6.627 5.373-12 12-12s12 5.373 12 12zM6 12c0 3.314 2.686 6 6 6s6-2.686 6-6v0c0-3.314-2.686-6-6-6s-6 2.686-6 6v0z"></path>
</symbol>
<symbol id="icon-tel" viewBox="0 0 32 32">
<path d="M3.771 1.020c0.631-0.63 1.503-1.020 2.466-1.020 1.116 0 2.11 0.524 2.749 1.339l0.006 0.008 3.589 4.612c0.659 0.845 0.891 1.948 0.631 2.988l-1.093 4.38c-0.116 0.461 0.019 0.949 0.355 1.287l4.915 4.913c0.337 0.337 0.827 0.472 1.288 0.356l4.377-1.093c0.254-0.066 0.546-0.104 0.847-0.104 0.81 0 1.556 0.276 2.148 0.74l-0.008-0.006 4.612 3.589c0.823 0.644 1.347 1.638 1.347 2.754 0 0.963-0.39 1.836-1.022 2.467l-2.067 2.068c-1.48 1.48-3.693 2.131-5.755 1.404-5.488-1.964-10.173-4.983-14.019-8.839l-0.001-0.001c-3.857-3.846-6.875-8.532-8.758-13.759l-0.082-0.26c-0.723-2.060-0.072-4.275 1.408-5.755l2.067-2.067z"></path>
</symbol>
<symbol id="icon-triangle" viewBox="0 0 53 32">
<path d="M26.667 32l26.667-32h-53.333l26.667 32z"></path>
</symbol>
</defs>
</svg>
