<svg aria-hidden="true" style="position: absolute; width: 0; height: 0; overflow: hidden;" version="1.1" xmlns="http://www.w3.org/2000/svg" xmlns:xlink="http://www.w3.org/1999/xlink">
<defs>
<symbol id="icon-mobil-menu" viewBox="0 0 32 32">
<path d="M26.733 14h-21.466c-0.7 0-1.267 0.425-1.267 0.95v0.1c0 0.525 0.567 0.95 1.267 0.95h21.466c0.7 0 1.267-0.425 1.267-0.95v-0.1c0-0.525-0.567-0.95-1.267-0.95zM26.733 20h-21.466c-0.7 0-1.267 0.425-1.267 0.95v0.1c0 0.525 0.567 0.95 1.267 0.95h21.466c0.7 0 1.267-0.425 1.267-0.95v-0.1c0-0.525-0.567-0.95-1.267-0.95zM26.733 8h-21.466c-0.7 0-1.267 0.425-1.267 0.95v0.1c0 0.525 0.567 0.95 1.267 0.95h21.466c0.7 0 1.267-0.425 1.267-0.95v-0.1c0-0.525-0.567-0.95-1.267-0.95z"></path>
</symbol>
<symbol id="icon-icon-menu-close" viewBox="0 0 32 32">
<path d="M23.884 6.706l-7.884 7.884-7.884-7.884c-0.177-0.162-0.414-0.262-0.674-0.262-0.551 0-0.998 0.447-0.998 0.998 0 0.26 0.099 0.497 0.262 0.674l-0.001-0.001 7.88 7.884-7.882 7.882c-0.181 0.181-0.293 0.43-0.293 0.706 0 0.551 0.447 0.998 0.998 0.998 0.275 0 0.524-0.111 0.705-0.292v0l7.886-7.882 7.884 7.884c0.177 0.162 0.414 0.262 0.674 0.262 0.551 0 0.998-0.447 0.998-0.998 0-0.26-0.099-0.497-0.262-0.674l0.001 0.001-7.884-7.884 7.884-7.886c0.181-0.181 0.293-0.43 0.293-0.706 0-0.551-0.447-0.998-0.998-0.998-0.275 0-0.524 0.111-0.705 0.292v0 0.002z"></path>
</symbol>
<symbol id="icon-arrow-btn" viewBox="0 0 32 32">
<path d="M10.587 3.272c-0.361 0.362-0.585 0.861-0.585 1.413s0.223 1.051 0.585 1.413l9.899 9.901-9.899 9.899c-0.333 0.356-0.537 0.836-0.537 1.363 0 1.105 0.895 2 2 2 0.527 0 1.007-0.204 1.365-0.538l-0.001 0.001 11.315-11.312c0.361-0.362 0.585-0.861 0.585-1.413s-0.224-1.052-0.585-1.413l-11.315-11.315c-0.362-0.361-0.861-0.585-1.413-0.585s-1.052 0.224-1.413 0.585l0-0z"></path>
</symbol>
<symbol id="arrow-top" viewBox="0 0 320 512">
<path d="M310.6 182.6c-12.51 12.51-32.76 12.49-45.25 0L192 109.3V480c0 17.69-14.31 32-32 32s-32-14.31-32-32V109.3L54.63 182.6c-12.5 12.5-32.75 12.5-45.25 0s-12.5-32.75 0-45.25l128-128c12.5-12.5 32.75-12.5 45.25 0l128 128C323.1 149.9 323.1 170.1 310.6 182.6z"/>
</symbol>
<symbol id="icon-combined-shape" viewBox="0 0 37 32">
<path fill="#fff" style="fill: var(--color1, #fff)" d="M0 2.286c0 1.262 1.023 2.286 2.286 2.286h32c1.262 0 2.286-1.023 2.286-2.286s-1.023-2.286-2.286-2.286h-32c-1.262 0-2.286 1.023-2.286 2.286zM0 16c0 1.262 1.023 2.286 2.286 2.286h32c1.262 0 2.286-1.023 2.286-2.286s-1.023-2.286-2.286-2.286h-32c-1.262 0-2.286 1.023-2.286 2.286zM2.286 27.429h32c1.262 0 2.286 1.023 2.286 2.286s-1.023 2.286-2.286 2.286h-32c-1.262 0-2.286-1.023-2.286-2.286s1.023-2.286 2.286-2.286z"></path>
</symbol>
<symbol id="icon-up" viewBox="0 0 32 32">
<path d="M32 16c0 8.837-7.163 16-16 16s-16-7.163-16-16c0-8.837 7.163-16 16-16s16 7.163 16 16z"></path>
<path fill="#fff" d="M15.247 10.86l-4.796 5.481c-0.566 0.647-0.106 1.659 0.753 1.659h9.592c0.393 0 0.749-0.229 0.912-0.587s0.1-0.777-0.159-1.072l-4.796-5.48c-0.19-0.217-0.464-0.342-0.753-0.342s-0.563 0.125-0.753 0.342v-0.001z"></path>
</symbol>
<symbol id="icon-down" viewBox="0 0 32 32">
<path d="M32 16c0 8.837-7.163 16-16 16s-16-7.163-16-16c0-8.837 7.163-16 16-16s16 7.163 16 16z"></path>
<path fill="#fff" d="M15.045 21.14l-4.796-5.482c-0.566-0.645-0.106-1.658 0.753-1.658h9.592c0.393-0 0.749 0.229 0.911 0.587s0.1 0.777-0.158 1.072l-4.796 5.48c-0.19 0.217-0.465 0.342-0.753 0.342s-0.563-0.125-0.753-0.342v0.001z"></path>
</symbol>
<symbol id="icon-video-play" viewBox="0 0 32 32">
<path fill="#ef6d58" d="M32 16c0 8.837-7.163 16-16 16s-16-7.163-16-16c0-8.837 7.163-16 16-16s16 7.163 16 16z"></path>
<path fill="#fff" d="M11.37 20.57v-9.14c0-0.87 0.95-1.41 1.7-0.95l7.5 4.57c0.71 0.43 0.71 1.47 0 1.91l-7.5 4.57c-0.74 0.44-1.7-0.090-1.7-0.96z"></path>
</symbol>
</defs>
</svg>
