<svg aria-hidden="true" style="position: absolute; width: 0; height: 0; overflow: hidden;" version="1.1" xmlns="http://www.w3.org/2000/svg" xmlns:xlink="http://www.w3.org/1999/xlink">
<defs>
<symbol id="icon-up" viewBox="0 0 32 32">
<path d="M32 16c0 8.837-7.163 16-16 16s-16-7.163-16-16c0-8.837 7.163-16 16-16s16 7.163 16 16z"></path>
<path fill="#fff" d="M15.247 10.86l-4.796 5.481c-0.566 0.647-0.106 1.659 0.753 1.659h9.592c0.393 0 0.749-0.229 0.912-0.587s0.1-0.777-0.159-1.072l-4.796-5.48c-0.19-0.217-0.464-0.342-0.753-0.342s-0.563 0.125-0.753 0.342v-0.001z"></path>
</symbol>
<symbol id="icon-down" viewBox="0 0 32 32">
<path d="M32 16c0 8.837-7.163 16-16 16s-16-7.163-16-16c0-8.837 7.163-16 16-16s16 7.163 16 16z"></path>
<path d="M15.045 21.14l-4.796-5.482c-0.566-0.645-0.106-1.658 0.753-1.658h9.592c0.393-0 0.749 0.229 0.911 0.587s0.1 0.777-0.158 1.072l-4.796 5.48c-0.19 0.217-0.465 0.342-0.753 0.342s-0.563-0.125-0.753-0.342v0.001z"></path>
</symbol>
</defs>
</svg>
