<svg xmlns="http://www.w3.org/2000/svg" viewBox="0 0 48 48">
  <path d="M40.58 16.82a5.67 5.67 0 0 1 2.17.39A4.63 4.63 0 0 1 45.38 20a6.48 6.48 0 0 1 .35 2.16V31h-1.51a1.54 1.54 0 0 1-.74-.15.89.89 0 0 1-.41-.57l-.3-1a12.28 12.28 0 0 1-1 .84 7.87 7.87 0 0 1-1.05.6 5.5 5.5 0 0 1-1.15.36 7.09 7.09 0 0 1-1.36.12 5.61 5.61 0 0 1-1.65-.2 3.41 3.41 0 0 1-1.28-.72 3 3 0 0 1-.83-1.18 4.17 4.17 0 0 1-.3-1.64 3.31 3.31 0 0 1 .41-1.56 3.86 3.86 0 0 1 1.38-1.38 8.45 8.45 0 0 1 2.56-1 16.32 16.32 0 0 1 4-.41v-.82a3.08 3.08 0 0 0-.59-2.08 2.14 2.14 0 0 0-1.71-.67 12.83 12.83 0 0 0-4.29.87c-1.82.73-3 .89-3.32 1.87L29.75 31h-2.7c-.29 0-.5-.2-.62-.6l-2.51-8c-.08-.26-.15-.52-.22-.79a8 8 0 0 1-.17-.79c-.05.27-.11.54-.18.8s-.13.54-.21.81l-2.54 8a.73.73 0 0 1-.73.6h-2.56l-3.64-11.57-2.21.1a4.21 4.21 0 0 0-1.06.13 1.82 1.82 0 0 0-.79.45 2 2 0 0 0-.5.84 4.34 4.34 0 0 0-.17 1.29v.93h3.62v2.38H9.05V31H5.71v-5.41l-2.57-.19a1.21 1.21 0 0 1-.63-.27.69.69 0 0 1-.24-.57V23.2h3.44v-1a6.2 6.2 0 0 1 .35-2.2 4.64 4.64 0 0 1 1-1.62 4.49 4.49 0 0 1 1.64-1 6.12 6.12 0 0 1 2.16-.35h4.68a1.07 1.07 0 0 1 .63.18.75.75 0 0 1 .33.45l2 7.42a10.59 10.59 0 0 1 .26 1.19c.07.39.14.78.2 1.16.1-.38.21-.77.32-1.16s.23-.79.36-1.19L22 17.67a.84.84 0 0 1 .32-.45 1 1 0 0 1 .57-.17h1.48a1 1 0 0 1 .61.17.84.84 0 0 1 .32.45l2.28 7.58c.12.39.22.77.32 1.13s.18.74.28 1.11c.06-.39.13-.78.2-1.17s.18-.79.3-1.2l.95-3.83c.32-1.67 7.44-4.47 11-4.47m-1.4 12.06a4.72 4.72 0 0 0 1-.09 3.69 3.69 0 0 0 .81-.28 4.87 4.87 0 0 0 .75-.46 6 6 0 0 0 .72-.65v-2.32a13.83 13.83 0 0 0-2.44.18 6.37 6.37 0 0 0-1.58.47 2 2 0 0 0-.85.67 1.53 1.53 0 0 0-.25.83 1.46 1.46 0 0 0 .53 1.27 2.26 2.26 0 0 0 1.36.38m1.35-13.56c-3.1 0-11.76 2.55-12.45 5.63l-.14.57-1.34-4.28a2.26 2.26 0 0 0-.89-1.24 2.52 2.52 0 0 0-1.48-.45h-1.48a2.48 2.48 0 0 0-1.45.45 2.36 2.36 0 0 0-.88 1.22l-1.37 4.45L18 17.31a2.2 2.2 0 0 0-.93-1.3 2.6 2.6 0 0 0-1.48-.44H10.89a7.61 7.61 0 0 0-2.68.43 5.87 5.87 0 0 0-3.55 3.5 7.48 7.48 0 0 0-.44 2.21H2.27a1.5 1.5 0 0 0-1.5 1.5v1.36a2.19 2.19 0 0 0 .77 1.72 2.75 2.75 0 0 0 1.35.6h.14l1.18.11v4a1.5 1.5 0 0 0 1.5 1.5h3.34a1.5 1.5 0 0 0 1.5-1.5v-3.92h2a1.5 1.5 0 0 0 1.5-1.43l1.82 5.77a1.51 1.51 0 0 0 1.43 1h2.56A2.2 2.2 0 0 0 22 30.83l1.5-4.72 1.5 4.71a2.14 2.14 0 0 0 2.05 1.65h2.7a1.5 1.5 0 0 0 1.43-1l1.54-4.84a4.47 4.47 0 0 0-.07.82 5.78 5.78 0 0 0 .41 2.22 4.89 4.89 0 0 0 1.22 1.73 5 5 0 0 0 1.83 1 7 7 0 0 0 2.07.3 8.36 8.36 0 0 0 1.65-.15 6.56 6.56 0 0 0 1.48-.47 6.4 6.4 0 0 0 .82-.43 2.21 2.21 0 0 0 .65.52 3 3 0 0 0 1.44.32h1.51a1.5 1.5 0 0 0 1.5-1.5v-8.8a8.15 8.15 0 0 0-.43-2.66 6.43 6.43 0 0 0-1.33-2.23 6.14 6.14 0 0 0-2.14-1.47 7.09 7.09 0 0 0-2.75-.51ZM34 22.67a7.56 7.56 0 0 1 1.21-.49c.38-.13.79-.28 1.24-.46a11.37 11.37 0 0 1 3.71-.72c.3 0 .49.05.58.16a.82.82 0 0 1 .17.46 14.57 14.57 0 0 0-2.79.41 10.24 10.24 0 0 0-3 1.21 5.41 5.41 0 0 0-1.88 1.94l-.15.3.91-2.81Zm-23.5-1a1.85 1.85 0 0 1 .06-.25.51.51 0 0 1 .12-.24.29.29 0 0 1 .14-.07 2.48 2.48 0 0 1 .66-.08h1.13l.22.7a1.06 1.06 0 0 0-.25 0Zm28.36 5.53a1.35 1.35 0 0 1 .25-.15 5.51 5.51 0 0 1 1.21-.35l.66-.09v.11l-.13.11a3.07 3.07 0 0 1-.48.29 2.19 2.19 0 0 1-.49.17 3.06 3.06 0 0 1-.63.06 1.34 1.34 0 0 1-.38 0s0-.07 0-.11Z"/>
</svg>
