<svg aria-hidden="true" style="position: absolute; width: 0; height: 0; overflow: hidden;" version="1.1" xmlns="http://www.w3.org/2000/svg" xmlns:xlink="http://www.w3.org/1999/xlink">
<defs>
<symbol id="icon-path" viewBox="0 0 41 32">
<path d="M0 13.531c4.731 0.974 10.821 2.857 15.429 5.817 5.413-7.154 15.134-13.849 25.714-19.349-10.048 9.769-18.361 20.855-24 32-4.544-6.37-9.509-12.299-17.143-18.469z"></path>
</symbol>
<symbol id="icon-combined-shape" viewBox="0 0 32 32">
<path d="M1 0c-0.552 0-1 0.448-1 1v0 25.088c0.023 1.625 0.69 3.090 1.758 4.154l0 0c1.083 1.086 2.58 1.758 4.235 1.758 0.002 0 0.005 0 0.007 0h25c0.552 0 1-0.448 1-1v0-10c0-0.552-0.448-1-1-1v0h-10.478l8.256-8.22c0.181-0.181 0.294-0.431 0.294-0.708s-0.112-0.527-0.294-0.708l-7.070-7.072c-0.181-0.181-0.431-0.293-0.707-0.293s-0.526 0.112-0.707 0.293v0l-8.294 8.262v-10.554c0-0.552-0.448-1-1-1v0h-10zM26.656 11.068l-14.656 14.6v-11.292l8.998-8.964 5.658 5.656zM9 26c0-1.657-1.343-3-3-3s-3 1.343-3 3v0c0 1.657 1.343 3 3 3s3-1.343 3-3v0zM18.516 22h11.484v8h-19.514l8.030-8z"></path>
</symbol>
</defs>
</svg>
<svg aria-hidden="true" style="position: absolute; width: 0; height: 0; overflow: hidden;" version="1.1" xmlns="http://www.w3.org/2000/svg" xmlns:xlink="http://www.w3.org/1999/xlink">
<defs>
<symbol id="icon-Path-1" viewBox="0 0 41 32">
<path d="M0 13.531c4.731 0.974 10.821 2.857 15.429 5.817 5.413-7.154 15.134-13.849 25.714-19.349-10.048 9.769-18.361 20.855-24 32-4.544-6.37-9.509-12.299-17.143-18.469z"></path>
</symbol>
<symbol id="icon-combined-shape" viewBox="0 0 32 32">
<path d="M1 0c-0.552 0-1 0.448-1 1v0 25.088c0.023 1.625 0.69 3.090 1.758 4.154l0 0c1.083 1.086 2.58 1.758 4.235 1.758 0.002 0 0.005 0 0.007 0h25c0.552 0 1-0.448 1-1v0-10c0-0.552-0.448-1-1-1v0h-10.478l8.256-8.22c0.181-0.181 0.294-0.431 0.294-0.708s-0.112-0.527-0.294-0.708l-7.070-7.072c-0.181-0.181-0.431-0.293-0.707-0.293s-0.526 0.112-0.707 0.293v0l-8.294 8.262v-10.554c0-0.552-0.448-1-1-1v0h-10zM26.656 11.068l-14.656 14.6v-11.292l8.998-8.964 5.658 5.656zM9 26c0-1.657-1.343-3-3-3s-3 1.343-3 3v0c0 1.657 1.343 3 3 3s3-1.343 3-3v0zM18.516 22h11.484v8h-19.514l8.030-8z"></path>
</symbol>
</defs>
</svg>