<svg xmlns="http://www.w3.org/2000/svg" aria-hidden="true" style="position:absolute;width:0;height:0;overflow:hidden"><defs>
<symbol id="icon-path" viewBox="0 0 37 32"><path fill="#e7c4b2" d="M26.843 1.768A6.228 6.228 0 0 0 21.687.053a6.356 6.356 0 0 0-4.475 2.879 6.45 6.45 0 0 0-1.013 2.929l.253-.253a14.524 14.524 0 0 0-6.859 1.073 6.221 6.221 0 0 0-3.447 4.555 4.262 4.262 0 0 0 .627 3.036l.168-.413a9.703 9.703 0 0 0-6.447 5.393 6.865 6.865 0 0 0-.273 4.282 5.419 5.419 0 0 0 2.34 3.147 4.89 4.89 0 0 0 4.134.591l-.387-.22a7.029 7.029 0 0 0 5.552 4.693 13.41 13.41 0 0 0 8.58-1.146 14.77 14.77 0 0 0 4.258-3.024l-.23.096c1.615.1 3.235-.1 4.777-.589a14.696 14.696 0 0 0 4.015-1.899 9.073 9.073 0 0 0 2.801-2.932 6.22 6.22 0 0 0 .8-3.657 4.926 4.926 0 0 0-1.902-3.574v.579a5.902 5.902 0 0 0 2.308-5.076 5.711 5.711 0 0 0-6.298-5.113l.237.572a3.428 3.428 0 0 0 .722-3.948 3.177 3.177 0 0 0-3.55-1.643 3.242 3.242 0 0 0-1.96 1.231.321.321 0 0 0 .114.435.325.325 0 0 0 .434-.114 2.772 2.772 0 0 1 3.039-.813 2.514 2.514 0 0 1 1.571 2.717 2.57 2.57 0 0 1-.844 1.661.338.338 0 0 0 .237.572 5.201 5.201 0 0 1 4.613 1.874 4.912 4.912 0 0 1 .718 4.798 4.787 4.787 0 0 1-1.678 2.268.338.338 0 0 0-.068.527 5.024 5.024 0 0 1 .877 6.486 8.641 8.641 0 0 1-2.822 2.81 14.417 14.417 0 0 1-4.082 1.785c-.781.214-1.581.35-2.388.409-.392.026-.785.023-1.177.01a2.21 2.21 0 0 0-.58-.014 1.29 1.29 0 0 0-.43.371 14.12 14.12 0 0 1-3.439 2.454 13.072 13.072 0 0 1-7.845 1.426 6.981 6.981 0 0 1-5.493-3.624 4.704 4.704 0 0 1-.26-.772.317.317 0 0 0-.387-.22 4.64 4.64 0 0 1-5.622-2.91A6.111 6.111 0 0 1 .91 19.82a7.433 7.433 0 0 1 2.226-3.276 10.825 10.825 0 0 1 3.956-2.138.284.284 0 0 0 .169-.414 4.392 4.392 0 0 1 .332-4.893 7.313 7.313 0 0 1 5.144-2.796 21.59 21.59 0 0 1 3.717-.185.258.258 0 0 0 .253-.252A6.05 6.05 0 0 1 19.146 1.6 5.962 5.962 0 0 1 24 .66c.975.22 1.885.667 2.655 1.304a.135.135 0 0 0 .191-.191z" style="fill:var(--color1, #e7c4b2)"/></symbol>
<symbol id="icon-shape" viewBox="0 0 32 32"><path fill="#ef6d58" d="M16 32c8.837 0 16-7.163 16-16S24.837 0 16 0 0 7.163 0 16s7.163 16 16 16zM15 6a1 1 0 0 1 1 1v10.42l6.496 3.712a1 1 0 0 1-.992 1.736l-7-4A.999.999 0 0 1 14 18V7a1 1 0 0 1 1-1z" style="fill:var(--color2, #ef6d58)"/></symbol>
<symbol id="icon-events-case" viewBox="0 0 32 32"><path fill="#fff" d="M6 5a5 5 0 0 1 10 0 5 5 0 0 1 10 0v.012c0 .14 0 .54-.076.988H30a2 2 0 0 1 2 2v2a2 2 0 0 1-2 2H2a2 2 0 0 1-2-2V8a2 2 0 0 1 2-2h4.076A5.946 5.946 0 0 1 6 5.012V5zm2.136 1H14V5a3 3 0 0 0-6 0c0 .17.004.548.09.86a.996.996 0 0 0 .046.14zm15.728 0H18V5a3 3 0 1 1 6 0c0 .17-.004.548-.09.86a1.146 1.146 0 0 1-.046.14zM30 14v15a3 3 0 0 1-3 3h-9V14h12zM2 29a3 3 0 0 0 3 3h9V14H2v15z" style="fill:var(--color1, #fff)"/></symbol></defs></svg>